# File created by Blade
# Date/Time:  Mon Sep 22 17:46:01 2014
# Frame Rate: 120.000 fps
#------------------------------------------------------
:FULLY-SPECIFIED
:DEGREES
4391
root 2.316861 37.087978 5.935751 -2.179555 0.641485 1.659119
RightUpLeg 11.494704 3.661496 -0.052341
RightLeg -7.494205 -0.000000 0.000000
RightFoot -14.267666 -29.287843 16.914794
RightToeBase 13.652107 -0.000000 -0.000000
LeftUpLeg 12.765366 -7.966979 -4.860024
LeftLeg -4.447308 -0.000000 0.000000
LeftFoot -9.698222 11.389668 -14.388876
LeftToeBase 4.829789 -0.000000 -0.000000
Spine 6.659784 -12.779831 -3.965273
RightShoulder -5.634858 -23.423237 -18.757883
RightArm 11.788715 14.341429 38.320213
RightForeArm 8.398566 -0.000000 33.396196
RightHand -2.388277 0.000000 -18.812610
RightHandThumb1 -24.326973 -0.000000 -32.862282
LeftShoulder -24.613627 31.015379 6.511302
LeftArm 50.705080 -50.164640 -72.764306
LeftForeArm -7.587601 -0.000000 55.973058
LeftHand -37.202469 0.000000 19.656337
LeftHandThumb1 -26.253704 0.000000 33.147579
Head -0.057882 13.660016 8.541788
4392
root 2.287885 37.098470 5.934364 -2.063640 0.457194 1.692165
RightUpLeg 11.254035 4.005504 -0.031430
RightLeg -7.297371 -0.000000 0.000000
RightFoot -14.381016 -29.367580 17.040855
RightToeBase 13.645827 -0.000000 -0.000000
LeftUpLeg 12.629152 -7.772224 -4.818080
LeftLeg -4.423364 -0.000000 0.000000
LeftFoot -9.626356 11.382084 -14.497703
LeftToeBase 4.790300 -0.000000 -0.000000
Spine 6.486314 -12.443950 -3.783050
RightShoulder -5.585755 -23.163471 -19.160064
RightArm 11.712022 14.839633 37.825412
RightForeArm 8.460941 -0.000000 33.038018
RightHand -2.414039 -0.000000 -18.968098
RightHandThumb1 -24.326973 -0.000000 -32.862282
LeftShoulder -24.683315 30.968880 6.644818
LeftArm 51.176302 -50.533096 -72.965005
LeftForeArm -7.425708 -0.000000 55.179920
LeftHand -37.164272 0.000000 19.633889
LeftHandThumb1 -26.253704 0.000000 33.147579
Head -0.260362 13.714124 8.186798
4393
root 2.257644 37.110172 5.936219 -1.963861 0.316588 1.720299
RightUpLeg 11.030359 4.233191 -0.008320
RightLeg -7.087514 -0.000000 0.000000
RightFoot -14.417333 -29.400102 17.051884
RightToeBase 13.608984 -0.000000 -0.000000
LeftUpLeg 12.484563 -7.743820 -4.809830
LeftLeg -4.329992 -0.000000 0.000000
LeftFoot -9.626409 11.541628 -14.610428
LeftToeBase 4.799060 -0.000000 -0.000000
Spine 6.335619 -12.189107 -3.600855
RightShoulder -5.492375 -22.857317 -19.631917
RightArm 11.604837 15.247890 37.377034
RightForeArm 8.505515 -0.000000 32.669408
RightHand -2.307750 -0.000000 -19.202477
RightHandThumb1 -24.326973 -0.000000 -32.862282
LeftShoulder -24.708520 30.799173 6.814407
LeftArm 51.222247 -50.898870 -72.761480
LeftForeArm -7.430066 -0.000000 54.439405
LeftHand -37.404642 -0.000000 19.364414
LeftHandThumb1 -26.253704 0.000000 33.147579
Head -0.492400 13.712832 7.775939
4394
root 2.225297 37.122469 5.935971 -1.895071 0.172728 1.747690
RightUpLeg 10.852697 4.520571 0.026987
RightLeg -6.908895 -0.000000 0.000000
RightFoot -14.452486 -29.485786 17.090342
RightToeBase 13.529132 -0.000000 -0.000000
LeftUpLeg 12.354416 -7.624206 -4.780290
LeftLeg -4.213285 -0.000000 0.000000
LeftFoot -9.598960 11.584427 -14.700235
LeftToeBase 4.750467 -0.000000 -0.000000
Spine 6.234114 -11.922920 -3.439744
RightShoulder -5.400798 -22.585059 -20.101925
RightArm 11.520372 15.634414 36.951192
RightForeArm 8.715993 -0.000000 32.320540
RightHand -2.366363 -0.000000 -19.418514
RightHandThumb1 -24.326973 -0.000000 -32.862282
LeftShoulder -24.771669 30.740834 6.983065
LeftArm 51.448267 -51.221641 -72.723038
LeftForeArm -7.402767 -0.000000 53.625257
LeftHand -37.144870 -0.000000 19.504874
LeftHandThumb1 -26.253704 0.000000 33.147579
Head -0.724440 13.875455 7.467943
4395
root 2.193359 37.136688 5.940274 -1.865891 0.039527 1.788476
RightUpLeg 10.754322 4.806659 0.048857
RightLeg -6.790751 -0.000000 0.000000
RightFoot -14.461567 -29.575961 17.149831
RightToeBase 13.505560 -0.000000 -0.000000
LeftUpLeg 12.271742 -7.409365 -4.761823
LeftLeg -4.112976 -0.000000 0.000000
LeftFoot -9.544546 11.578212 -14.857518
LeftToeBase 4.652012 -0.000000 -0.000000
Spine 6.190604 -11.644059 -3.329087
RightShoulder -5.393116 -22.358967 -20.507283
RightArm 11.520311 16.081539 36.557976
RightForeArm 8.698166 -0.000000 31.909981
RightHand -2.119766 -0.000000 -19.460642
RightHandThumb1 -24.326973 -0.000000 -32.862282
LeftShoulder -24.838806 30.721616 7.161857
LeftArm 51.804752 -51.568134 -72.813679
LeftForeArm -7.467475 -0.000000 52.856507
LeftHand -37.415246 -0.000000 18.987736
LeftHandThumb1 -26.253704 0.000000 33.147579
Head -0.965553 13.912588 7.185067
4396
root 2.164457 37.150948 5.945989 -1.836937 -0.072903 1.829033
RightUpLeg 10.632470 4.910685 0.041709
RightLeg -6.615878 -0.000000 0.000000
RightFoot -14.466499 -29.486677 17.186546
RightToeBase 13.435205 -0.000000 -0.000000
LeftUpLeg 12.183096 -7.319236 -4.774299
LeftLeg -3.994299 -0.000000 0.000000
LeftFoot -9.525051 11.720850 -14.985127
LeftToeBase 4.658661 -0.000000 -0.000000
Spine 6.133256 -11.395655 -3.194310
RightShoulder -5.303842 -22.081857 -20.951276
RightArm 11.350931 16.456306 36.111125
RightForeArm 8.679887 -0.000000 31.652397
RightHand -2.258436 -0.000000 -19.429757
RightHandThumb1 -24.326973 -0.000000 -32.862282
LeftShoulder -24.875019 30.671743 7.337705
LeftArm 52.045187 -51.902909 -72.784764
LeftForeArm -7.606175 -0.000000 52.009577
LeftHand -37.132629 -0.000000 19.068070
LeftHandThumb1 -26.253704 0.000000 33.147579
Head -1.187189 13.982998 6.857328
4397
root 2.129525 37.165394 5.952524 -1.841864 -0.119560 1.870787
RightUpLeg 10.585740 4.969594 0.050060
RightLeg -6.507641 -0.000000 0.000000
RightFoot -14.433233 -29.442711 17.215818
RightToeBase 13.352494 -0.000000 -0.000000
LeftUpLeg 12.116106 -7.068966 -4.737351
LeftLeg -3.851425 -0.000000 0.000000
LeftFoot -9.472255 11.600718 -15.091711
LeftToeBase 4.641752 -0.000000 -0.000000
Spine 6.131871 -11.193271 -3.101753
RightShoulder -5.233602 -21.808051 -21.361351
RightArm 11.219424 16.929463 35.733722
RightForeArm 8.669280 -0.000000 31.286333
RightHand -2.108812 -0.000000 -19.231852
RightHandThumb1 -24.326973 -0.000000 -32.862282
LeftShoulder -24.977969 30.743842 7.473960
LeftArm 52.653164 -52.252794 -73.055536
LeftForeArm -7.532014 -0.000000 51.106331
LeftHand -36.951659 -0.000000 18.600010
LeftHandThumb1 -26.253704 0.000000 33.147579
Head -1.391813 14.034309 6.567477
4398
root 2.098965 37.179622 5.956441 -1.851635 -0.139202 1.958119
RightUpLeg 10.568019 4.981449 0.002242
RightLeg -6.447092 -0.000000 0.000000
RightFoot -14.405377 -29.385149 17.234345
RightToeBase 13.331159 -0.000000 -0.000000
LeftUpLeg 12.044376 -6.874435 -4.754444
LeftLeg -3.692765 -0.000000 0.000000
LeftFoot -9.425398 11.465622 -15.261389
LeftToeBase 4.682134 -0.000000 -0.000000
Spine 6.154090 -11.004088 -3.070923
RightShoulder -5.230071 -21.503246 -21.729330
RightArm 11.114237 17.294484 35.317043
RightForeArm 8.476966 0.000000 30.950116
RightHand -2.131528 -0.000000 -19.130827
RightHandThumb1 -24.326973 -0.000000 -32.862282
LeftShoulder -24.913462 30.634993 7.759370
LeftArm 52.737367 -52.627566 -72.952407
LeftForeArm -7.625137 -0.000000 50.297380
LeftHand -36.261403 -0.000000 18.084284
LeftHandThumb1 -26.253704 0.000000 33.147579
Head -1.654813 14.078374 6.322949
4399
root 2.072155 37.193440 5.960568 -1.861185 -0.163349 2.076604
RightUpLeg 10.549723 4.960741 -0.084192
RightLeg -6.388382 -0.000000 0.000000
RightFoot -14.375906 -29.299571 17.229825
RightToeBase 13.328767 -0.000000 -0.000000
LeftUpLeg 11.977277 -6.699120 -4.835181
LeftLeg -3.567558 -0.000000 0.000000
LeftFoot -9.350349 11.513364 -15.375714
LeftToeBase 4.633012 -0.000000 -0.000000
Spine 6.165610 -10.849492 -3.064485
RightShoulder -5.117236 -21.276111 -22.135748
RightArm 10.934836 17.669344 34.889320
RightForeArm 8.300892 -0.000000 30.705698
RightHand -2.337901 -0.000000 -18.834691
RightHandThumb1 -24.326973 -0.000000 -32.862282
LeftShoulder -24.957047 30.570927 7.916539
LeftArm 53.108937 -53.038596 -72.992375
LeftForeArm -7.911830 -0.000000 49.366064
LeftHand -36.121109 -0.000000 17.879574
LeftHandThumb1 -26.253704 0.000000 33.147579
Head -1.873627 14.111766 6.035177
4400
root 2.044085 37.206343 5.959649 -1.858465 -0.197019 2.184593
RightUpLeg 10.526015 5.008111 -0.152222
RightLeg -6.359899 -0.000000 0.000000
RightFoot -14.321668 -29.283728 17.197129
RightToeBase 13.321350 -0.000000 -0.000000
LeftUpLeg 11.862923 -6.420999 -4.883415
LeftLeg -3.388313 -0.000000 0.000000
LeftFoot -9.299765 11.456870 -15.498530
LeftToeBase 4.649230 -0.000000 -0.000000
Spine 6.186709 -10.651632 -3.060633
RightShoulder -5.080842 -21.029242 -22.500267
RightArm 10.833789 18.068381 34.506451
RightForeArm 8.195389 -0.000000 30.374472
RightHand -2.460968 0.000000 -18.843184
RightHandThumb1 -24.326973 -0.000000 -32.862282
LeftShoulder -25.012653 30.509948 8.112126
LeftArm 53.581311 -53.343727 -73.104699
LeftForeArm -7.901937 -0.000000 48.349520
LeftHand -36.099068 -0.000000 17.487536
LeftHandThumb1 -26.253704 0.000000 33.147579
Head -2.133082 14.121495 5.790463
4401
root 2.017914 37.217580 5.961117 -1.886237 -0.135110 2.298869
RightUpLeg 10.569710 4.899320 -0.236020
RightLeg -6.383519 -0.000000 0.000000
RightFoot -14.265495 -29.207091 17.190489
RightToeBase 13.286429 -0.000000 -0.000000
LeftUpLeg 11.796085 -6.323532 -4.954891
LeftLeg -3.233488 -0.000000 0.000000
LeftFoot -9.272819 11.435291 -15.674353
LeftToeBase 4.691808 -0.000000 -0.000000
Spine 6.238641 -10.540005 -3.076283
RightShoulder -5.039395 -20.819011 -22.842174
RightArm 10.719588 18.352924 34.040949
RightForeArm 8.157913 -0.000000 29.970111
RightHand -2.248157 -0.000000 -18.904671
RightHandThumb1 -24.326973 -0.000000 -32.862282
LeftShoulder -25.004549 30.461355 8.346079
LeftArm 53.970983 -53.662376 -73.171382
LeftForeArm -7.986383 -0.000000 47.315186
LeftHand -35.790737 -0.000000 17.527227
LeftHandThumb1 -26.253704 0.000000 33.147579
Head -2.345217 14.129610 5.548591
4402
root 1.991202 37.225831 5.963111 -1.912008 -0.074756 2.424884
RightUpLeg 10.619635 4.786263 -0.329464
RightLeg -6.420368 -0.000000 0.000000
RightFoot -14.193723 -29.148277 17.112874
RightToeBase 13.268285 -0.000000 -0.000000
LeftUpLeg 11.715079 -6.140122 -5.031160
LeftLeg -3.062434 -0.000000 0.000000
LeftFoot -9.239990 11.395286 -15.759287
LeftToeBase 4.694943 -0.000000 -0.000000
Spine 6.278647 -10.453935 -3.103478
RightShoulder -4.942795 -20.616544 -23.212963
RightArm 10.556095 18.689939 33.615230
RightForeArm 8.118469 -0.000000 29.660917
RightHand -2.191817 -0.000000 -18.779213
RightHandThumb1 -24.326973 -0.000000 -32.862282
LeftShoulder -25.005242 30.391551 8.569494
LeftArm 54.305742 -53.969537 -73.147538
LeftForeArm -7.818891 -0.000000 46.243363
LeftHand -35.694027 -0.000000 17.524294
LeftHandThumb1 -26.253704 0.000000 33.147579
Head -2.531009 14.167690 5.316171
4403
root 1.964759 37.233260 5.960335 -1.915397 0.003070 2.543311
RightUpLeg 10.639864 4.686049 -0.412895
RightLeg -6.450676 -0.000000 0.000000
RightFoot -14.137892 -29.121797 17.035101
RightToeBase 13.265801 -0.000000 -0.000000
LeftUpLeg 11.603155 -5.971836 -5.087527
LeftLeg -2.877164 -0.000000 0.000000
LeftFoot -9.243579 11.281796 -15.900349
LeftToeBase 4.839445 -0.000000 -0.000000
Spine 6.288754 -10.440282 -3.121551
RightShoulder -4.813331 -20.490062 -23.589626
RightArm 10.495510 19.029499 33.193044
RightForeArm 8.221515 0.000000 29.328293
RightHand -2.366595 -0.000000 -18.783986
RightHandThumb1 -24.326973 -0.000000 -32.862282
LeftShoulder -25.063042 30.365746 8.753437
LeftArm 54.766045 -54.344758 -73.315970
LeftForeArm -8.055317 -0.000000 45.223686
LeftHand -35.429882 -0.000000 17.183155
LeftHandThumb1 -26.253704 0.000000 33.147579
Head -2.677837 14.252466 5.086345
